<?xml version="1.0" standalone="no"?>
<!DOCTYPE svg PUBLIC "-//W3C//DTD SVG 20010904//EN"
 "http://www.w3.org/TR/2001/REC-SVG-20010904/DTD/svg10.dtd">
<svg version="1.0" xmlns="http://www.w3.org/2000/svg"
 width="2500.000000pt" height="2500.000000pt" viewBox="0 0 2500.000000 2500.000000"
 preserveAspectRatio="xMidYMid meet">
<metadata>
Created by potrace 1.11, written by Peter Selinger 2001-2013
</metadata>
<g transform="translate(0.000000,2500.000000) scale(0.100000,-0.100000)"
fill="#000000" stroke="none">
<path d="M7758 20525 c-2 -2 -66 -6 -143 -9 -182 -9 -500 -36 -595 -51 -14 -2
-47 -7 -75 -10 -27 -4 -57 -8 -65 -10 -8 -3 -35 -7 -60 -10 -58 -7 -140 -21
-265 -45 -55 -11 -111 -22 -125 -24 -55 -11 -89 -18 -175 -37 -49 -12 -97 -22
-105 -24 -239 -52 -755 -217 -1080 -345 -549 -217 -1144 -539 -1650 -895 -173
-121 -524 -396 -638 -499 -67 -60 -79 -72 -152 -136 -95 -84 -399 -387 -517
-515 -409 -447 -819 -1013 -1092 -1510 -19 -33 -47 -85 -64 -115 -291 -531
-561 -1226 -717 -1850 -47 -187 -116 -511 -126 -595 -3 -22 -9 -62 -14 -90
-10 -49 -15 -88 -26 -175 -3 -25 -7 -56 -9 -69 -2 -14 -7 -54 -11 -90 -3 -36
-7 -73 -9 -83 -2 -9 -7 -57 -10 -105 -4 -48 -9 -99 -10 -113 -12 -99 -20 -345
-19 -635 0 -348 8 -546 29 -740 2 -22 7 -67 10 -100 3 -33 8 -73 10 -90 2 -16
7 -52 10 -80 3 -27 8 -63 10 -80 3 -16 7 -48 10 -70 4 -22 8 -49 10 -60 12
-75 15 -94 20 -125 2 -19 7 -46 10 -60 3 -14 9 -47 15 -75 5 -27 12 -61 15
-75 2 -14 12 -61 21 -105 28 -140 74 -324 134 -535 268 -934 689 -1785 1278
-2580 100 -134 265 -345 283 -360 3 -3 32 -36 64 -75 123 -147 232 -263 441
-470 212 -211 265 -261 485 -450 243 -209 776 -592 1024 -735 17 -10 85 -49
152 -88 349 -203 806 -421 1123 -536 41 -15 84 -32 95 -37 32 -14 335 -118
390 -133 58 -16 246 -71 290 -85 31 -10 340 -86 385 -95 14 -3 70 -14 125 -25
55 -11 112 -22 128 -25 62 -11 144 -25 181 -31 21 -3 48 -7 60 -10 12 -2 41
-7 66 -10 25 -3 54 -7 65 -9 19 -3 75 -10 180 -22 28 -3 61 -7 75 -9 14 -2 61
-7 105 -10 44 -3 100 -8 125 -10 283 -25 1007 -25 1205 -1 17 2 70 7 119 11
49 4 98 8 109 11 11 2 52 6 91 9 39 3 78 7 86 10 8 2 38 6 65 10 60 7 170 23
205 29 14 3 41 7 60 10 19 3 59 10 88 17 69 14 85 17 98 18 9 1 -3 75 -40 246
-3 11 -12 54 -20 95 -9 41 -17 84 -20 95 -38 178 -58 275 -62 295 -3 14 -14
68 -25 120 -27 125 -90 428 -95 460 -3 14 -9 41 -14 60 -5 19 -12 53 -15 75
-4 22 -11 58 -17 80 -5 22 -12 51 -14 65 -3 14 -16 75 -29 137 -14 62 -25 121
-25 132 0 31 -13 33 -102 17 -46 -9 -103 -18 -128 -21 -24 -4 -47 -8 -50 -10
-3 -1 -36 -6 -73 -10 -37 -3 -76 -8 -85 -10 -16 -3 -131 -15 -197 -21 -286
-24 -776 -24 -1030 0 -16 2 -66 7 -109 10 -43 4 -86 9 -95 11 -15 3 -84 12
-146 20 -96 12 -297 48 -395 70 -8 2 -47 10 -85 19 -206 44 -601 163 -800 240
-298 117 -632 275 -885 421 -227 130 -581 371 -745 507 -11 9 -65 53 -120 99
-196 162 -440 395 -605 578 -41 46 -80 89 -85 95 -6 6 -46 54 -90 106 -543
647 -951 1417 -1186 2235 -22 77 -42 147 -44 155 -2 8 -13 56 -24 105 -42 178
-91 437 -107 565 -8 69 -15 115 -19 140 -2 14 -7 63 -11 110 -3 47 -8 93 -10
103 -6 36 -17 327 -18 482 0 147 10 415 19 510 2 22 7 69 10 105 4 36 17 144
31 240 29 210 30 215 64 380 143 695 407 1359 784 1970 175 285 418 612 627
846 153 170 374 391 520 519 70 62 116 101 158 135 23 19 53 43 64 54 99 85
513 378 622 440 17 9 57 33 90 53 582 348 1234 600 1894 733 85 17 171 33 190
36 20 3 61 9 91 14 30 5 73 12 95 15 22 4 51 8 65 10 14 2 61 7 105 10 44 4
87 8 95 10 78 19 836 28 1020 12 153 -13 214 -19 325 -33 48 -6 230 -33 265
-40 14 -3 48 -9 75 -14 224 -40 499 -109 720 -180 108 -35 278 -94 320 -111
17 -7 35 -13 40 -15 26 -6 262 -107 360 -154 208 -98 348 -171 493 -257 41
-24 76 -43 78 -43 3 0 17 -9 32 -19 15 -10 61 -40 102 -66 230 -146 418 -282
615 -446 190 -159 243 -207 431 -394 231 -231 396 -420 583 -670 85 -114 321
-463 332 -490 2 -5 20 -36 39 -68 45 -75 66 -113 119 -212 120 -222 188 -368
289 -620 53 -134 166 -451 177 -501 2 -10 11 -44 20 -74 22 -76 20 -71 55
-205 16 -66 33 -133 36 -150 2 -16 9 -46 14 -65 10 -39 9 -38 44 -240 13 -80
28 -170 32 -200 4 -30 8 -62 9 -70 1 -8 5 -51 10 -95 4 -44 9 -91 11 -105 26
-226 25 -909 -2 -1131 -5 -40 -10 -6960 -5 -7061 1 -17 55 -18 984 -18 l982 0
0 1341 c0 737 3 1345 6 1350 3 5 18 -8 35 -28 25 -32 128 -155 159 -190 5 -6
37 -42 70 -79 182 -207 500 -521 706 -699 186 -161 370 -307 571 -453 113 -81
317 -221 360 -247 9 -5 99 -60 200 -121 378 -229 747 -412 1165 -578 217 -85
613 -220 740 -251 10 -3 43 -12 73 -20 30 -9 62 -18 71 -20 9 -2 52 -13 95
-24 92 -24 241 -58 287 -67 18 -3 51 -9 75 -15 23 -5 59 -12 80 -15 20 -3 44
-7 52 -9 21 -6 234 -43 295 -51 27 -3 59 -8 70 -9 11 -2 45 -6 75 -9 30 -4 70
-9 89 -12 18 -2 59 -6 90 -9 31 -3 85 -8 121 -11 112 -11 131 -13 280 -20 267
-15 788 -9 1020 11 80 7 178 16 215 20 22 2 67 7 100 11 33 3 67 7 75 9 26 5
93 14 140 20 25 3 54 7 65 9 11 2 40 7 65 11 25 4 54 9 65 11 10 2 37 6 60 10
59 8 319 62 405 84 41 10 86 21 100 24 160 32 616 174 613 191 -1 6 -41 123
-88 260 -48 138 -111 320 -140 405 -88 257 -159 462 -245 710 -45 129 -89 256
-97 283 -9 26 -20 47 -24 47 -5 0 -83 -23 -175 -50 -151 -46 -345 -96 -464
-121 -92 -19 -307 -59 -370 -68 -60 -10 -83 -13 -180 -25 -32 -4 -138 -14
-215 -21 -318 -30 -823 -25 -1130 10 -22 2 -67 7 -100 10 -33 4 -67 8 -75 10
-8 2 -40 7 -70 10 -30 3 -62 8 -70 10 -8 2 -33 7 -56 10 -44 6 -168 30 -329
64 -225 48 -609 160 -800 234 -281 108 -417 169 -653 289 -396 202 -766 445
-1107 728 -172 143 -230 196 -420 385 -229 229 -269 274 -503 560 -10 11 -49
63 -88 115 -406 545 -720 1154 -926 1800 -40 126 -67 220 -73 248 -2 13 -9 38
-15 56 -6 18 -12 42 -15 52 -2 10 -13 60 -25 109 -11 50 -27 124 -35 165 -8
41 -17 86 -20 100 -3 14 -8 41 -11 60 -2 19 -9 58 -14 85 -10 55 -16 94 -25
170 -3 28 -8 64 -10 80 -12 91 -23 214 -32 365 -13 219 -6 741 12 890 2 19 7
62 10 95 3 33 8 71 10 85 2 14 6 50 10 81 3 31 7 65 9 75 2 11 7 41 10 67 4
27 9 57 11 67 2 9 6 33 9 51 55 338 184 797 331 1174 101 260 302 671 411 843
19 29 34 55 34 57 0 9 163 258 249 381 72 103 268 358 306 398 6 6 25 29 44
51 141 166 408 440 550 565 41 36 82 72 90 80 48 45 255 211 362 290 189 140
462 318 654 425 75 42 422 217 485 244 30 13 73 32 95 42 305 137 973 343
1215 375 19 2 50 9 70 14 19 5 53 11 75 15 23 3 52 7 65 10 24 5 46 8 140 20
25 3 56 8 70 10 14 2 50 6 80 10 30 3 71 8 90 10 238 28 939 28 1165 0 17 -2
57 -6 90 -10 33 -3 71 -8 85 -9 14 -2 52 -7 85 -10 33 -4 69 -10 80 -13 11 -3
31 -7 45 -8 36 -4 213 -36 220 -40 3 -2 26 -6 50 -10 103 -15 460 -112 669
-181 124 -40 225 -73 226 -71 1 1 19 49 39 107 21 58 47 128 58 155 12 28 27
68 34 90 7 22 20 58 28 80 292 778 474 1270 471 1273 -9 9 -339 119 -505 168
-194 58 -469 128 -542 139 -23 4 -46 9 -50 11 -3 2 -28 9 -55 14 -26 5 -59 12
-73 15 -13 2 -42 7 -65 11 -22 3 -62 10 -90 15 -77 16 -83 17 -195 33 -58 9
-145 21 -195 26 -49 6 -101 13 -115 15 -14 2 -60 6 -102 10 -43 3 -90 8 -105
10 -30 3 -225 16 -338 21 -95 4 -596 4 -668 -1 -33 -2 -107 -6 -165 -10 -59
-3 -125 -8 -147 -10 -22 -3 -71 -7 -110 -10 -38 -3 -81 -7 -95 -10 -14 -2 -55
-7 -92 -10 -37 -3 -77 -8 -90 -10 -13 -2 -75 -11 -138 -20 -114 -16 -146 -21
-185 -29 -11 -2 -54 -9 -95 -16 -59 -10 -300 -60 -355 -74 -5 -1 -26 -6 -45
-10 -199 -45 -699 -196 -845 -256 -11 -4 -36 -13 -55 -20 -19 -7 -44 -16 -55
-21 -11 -4 -67 -27 -125 -49 -58 -23 -123 -49 -145 -59 -22 -10 -85 -38 -140
-62 -83 -36 -494 -238 -545 -269 -93 -55 -173 -100 -177 -100 -24 0 -528 -329
-728 -476 -441 -323 -915 -755 -1250 -1139 -33 -38 -67 -76 -75 -85 -22 -22
-257 -313 -315 -389 -178 -235 -495 -712 -552 -831 -4 -8 -19 -36 -34 -61 -30
-52 -73 -128 -114 -206 l-28 -52 -90 167 c-49 92 -107 196 -128 231 -22 34
-39 65 -39 67 0 5 -60 101 -185 294 -166 258 -406 579 -617 825 -9 11 -26 31
-38 45 -136 159 -480 514 -625 645 -112 101 -250 221 -310 270 -26 22 -67 56
-90 75 -22 19 -85 69 -140 110 -55 41 -102 77 -105 80 -31 32 -326 234 -515
354 -266 169 -427 260 -725 409 -180 90 -242 119 -385 179 -38 17 -94 41 -123
54 -29 13 -55 24 -58 24 -3 0 -56 20 -118 45 -283 111 -778 265 -996 310 -8 2
-33 8 -55 13 -22 6 -51 13 -65 16 -14 2 -79 16 -145 30 -66 14 -147 30 -180
36 -33 5 -69 12 -80 14 -11 2 -42 7 -68 10 -27 4 -58 9 -70 12 -39 7 -200 29
-287 38 -25 3 -67 8 -95 11 -79 9 -184 17 -385 31 -71 5 -718 13 -722 9z"/>
<path d="M22018 17325 c-2 -2 -50 -6 -108 -9 -58 -4 -123 -9 -145 -11 -22 -3
-60 -7 -85 -10 -88 -10 -337 -49 -390 -61 -14 -3 -38 -8 -55 -10 -16 -3 -107
-26 -202 -50 -648 -166 -1273 -479 -1803 -902 -96 -77 -120 -98 -220 -186 -63
-57 -318 -312 -370 -371 -152 -172 -303 -369 -423 -550 -37 -55 -70 -104 -75
-110 -49 -63 -249 -441 -330 -626 -132 -301 -253 -681 -307 -969 -18 -92 -35
-190 -40 -220 -3 -19 -7 -46 -10 -60 -5 -33 -16 -116 -20 -160 -2 -19 -6 -69
-10 -110 -4 -41 -9 -100 -11 -130 -5 -88 -5 -509 1 -575 2 -33 7 -89 10 -125
5 -63 9 -94 20 -197 3 -27 13 -88 21 -138 8 -49 17 -103 20 -120 6 -40 21
-111 46 -215 11 -47 21 -92 23 -100 20 -102 114 -394 180 -565 115 -295 285
-623 463 -895 62 -96 263 -373 282 -390 3 -3 41 -48 85 -100 87 -104 402 -423
504 -510 500 -428 1026 -729 1633 -936 224 -76 355 -114 478 -139 8 -2 49 -10
90 -19 41 -8 91 -18 110 -21 19 -3 42 -8 50 -10 8 -2 35 -7 60 -10 25 -3 63
-8 85 -12 22 -3 51 -7 65 -8 116 -13 148 -17 167 -20 128 -21 662 -21 838 -1
17 2 66 7 110 11 44 3 87 8 95 10 8 2 35 7 60 10 25 3 70 10 100 15 30 5 70
12 88 15 116 19 313 67 462 111 191 56 192 56 187 73 -3 9 -51 149 -107 311
-56 162 -114 333 -130 380 -16 47 -49 144 -74 215 -124 361 -241 701 -274 797
-27 80 -40 105 -52 103 -8 -2 -55 -15 -105 -29 -129 -37 -330 -75 -490 -92
-85 -9 -437 -12 -505 -4 -36 5 -92 11 -125 14 -427 46 -896 223 -1280 484
-476 325 -856 800 -1064 1332 -48 121 -106 299 -115 350 -2 14 -9 45 -16 70
-7 25 -14 54 -16 65 -6 35 -33 209 -38 250 -23 166 -23 500 -1 645 2 14 7 54
10 90 4 36 9 68 11 71 2 4 6 24 9 45 9 70 73 317 110 424 203 580 594 1091
1105 1443 397 273 848 440 1335 494 89 10 540 10 625 -1 107 -13 240 -36 330
-58 47 -11 94 -22 105 -24 12 -2 72 -21 135 -43 115 -39 115 -39 124 -18 20
51 104 277 151 407 7 19 47 125 88 235 42 110 119 317 172 460 53 143 108 292
122 330 14 39 32 85 40 104 9 18 16 39 18 45 1 6 5 18 8 26 11 27 67 181 67
185 0 8 -345 115 -480 149 -116 29 -243 58 -315 71 -87 16 -209 35 -250 40
-27 3 -66 8 -85 10 -36 5 -97 11 -205 21 -59 5 -562 13 -567 9z"/>
<path d="M7848 17215 c-2 -1 -55 -5 -118 -9 -124 -7 -165 -10 -250 -21 -30 -4
-66 -9 -80 -10 -53 -6 -191 -29 -300 -50 -269 -53 -595 -152 -855 -260 -420
-173 -812 -406 -1164 -689 -175 -141 -194 -158 -391 -356 -527 -526 -910
-1146 -1145 -1857 -40 -118 -104 -350 -119 -425 -2 -13 -12 -57 -21 -98 -9
-41 -18 -86 -20 -100 -2 -14 -6 -43 -10 -65 -12 -76 -31 -212 -39 -285 -15
-129 -21 -249 -21 -485 0 -230 4 -325 20 -495 10 -113 38 -302 60 -410 3 -14
7 -37 10 -51 11 -63 58 -252 85 -344 129 -442 280 -782 540 -1212 69 -115 256
-371 375 -514 111 -135 370 -403 480 -500 33 -28 74 -64 90 -78 180 -157 520
-396 718 -505 37 -20 84 -46 105 -58 212 -122 614 -288 904 -374 125 -36 140
-40 192 -50 16 -2 33 -7 38 -10 5 -3 21 -8 36 -10 15 -3 43 -9 62 -14 19 -5
46 -11 60 -13 14 -3 63 -12 110 -20 47 -9 108 -19 135 -22 28 -4 61 -9 75 -11
14 -2 49 -6 78 -9 29 -4 61 -8 70 -10 94 -18 632 -26 807 -11 198 16 359 35
472 57 58 11 56 -1 27 134 -8 39 -17 80 -20 92 -14 69 -85 408 -89 426 -2 12
-15 76 -29 142 -13 66 -31 152 -40 190 -9 39 -18 81 -20 95 -3 14 -25 122 -51
240 -25 118 -52 249 -61 290 -14 68 -20 97 -29 140 -2 8 -4 21 -4 28 -1 12
-17 12 -127 -3 -90 -13 -217 -19 -364 -19 -150 0 -345 10 -359 19 -3 2 -31 6
-61 9 -206 22 -546 123 -779 232 -51 24 -95 44 -96 44 -2 0 -52 28 -112 61
-461 262 -830 625 -1095 1079 -73 124 -154 295 -209 440 -8 19 -14 37 -14 40
0 3 -3 10 -6 15 -9 14 -64 205 -84 285 -17 71 -43 211 -52 275 -2 22 -6 51 -8
65 -23 164 -23 534 0 670 2 14 9 61 15 105 24 166 100 460 146 562 8 17 14 36
14 42 0 6 4 19 10 29 5 9 19 40 31 67 196 459 505 850 940 1188 111 86 352
229 504 299 153 70 180 81 296 119 171 56 309 89 513 123 89 15 207 21 426 21
236 -1 279 -3 420 -26 36 -6 79 -13 95 -15 61 -10 243 -56 340 -86 271 -84
551 -223 800 -397 91 -64 85 -59 225 -178 197 -169 428 -431 536 -610 10 -18
38 -63 60 -100 88 -144 193 -367 247 -523 51 -145 108 -371 122 -480 3 -25 8
-52 10 -60 2 -8 7 -46 11 -85 3 -38 9 -79 11 -90 3 -11 6 -1784 7 -3940 l1
-3920 910 -3 910 -2 0 3962 c0 2180 -3 3968 -7 3973 -3 6 -9 51 -13 100 -3 50
-8 101 -10 115 -2 14 -7 50 -10 80 -21 181 -89 507 -148 710 -115 390 -286
782 -484 1105 -7 11 -15 27 -19 35 -17 35 -192 290 -266 388 -74 98 -158 202
-198 243 -8 9 -37 42 -64 74 -107 123 -321 330 -474 457 -131 108 -127 105
-212 169 -364 273 -733 471 -1225 659 -11 4 -31 12 -45 17 -54 22 -302 94
-435 127 -118 29 -238 53 -401 81 -57 9 -188 24 -369 41 -67 6 -521 14 -527 9z"/>
</g>
</svg>
